<svg xmlns="http://www.w3.org/2000/svg" width="247" height="77" viewBox="0 0 247 77" fill="none"><path d="M244.638 76.1674H133.228L135.219 68.5365H247L244.638 76.1674Z" fill="#C10230"></path><path d="M2.03808 68.2386H4.79765C5.92202 68.2386 6.69091 68.4888 7.19911 68.997C7.57829 69.3762 7.78367 69.9054 7.78367 70.5216C7.78367 71.8856 6.95159 72.8467 5.33745 73.2259L6.62508 75.8117H4.73182L3.56269 73.3891H2.3172L1.6668 75.8117H0L2.03808 68.2386ZM4.20255 71.9198C5.24266 71.9198 6.04315 71.4985 6.04315 70.6638C6.04315 70.4058 5.96678 70.2214 5.80616 70.0582C5.60077 69.8528 5.23212 69.7448 4.70286 69.7448H3.30727L2.72271 71.9198H4.20255Z" fill="#C10230"></path><path d="M10.6538 68.2386H16.3125L15.9122 69.7211H11.9072L11.4964 71.2694H15.0143L14.6141 72.7308H11.0962L10.6643 74.3318H14.7326L14.3323 75.8143H8.61835L10.6538 68.2386Z" fill="#C10230"></path><path d="M17.7845 68.2386H19.5698L20.0885 73.5208L23.4432 68.2386H25.3154L20.2412 75.8696H18.7693L17.7845 68.2386Z" fill="#C10230"></path><path d="M25.5734 72.589C25.5734 70.3271 27.414 68.11 30.1288 68.11C32.2169 68.11 33.5915 69.5609 33.5915 71.4647C33.5915 73.7266 31.7509 75.9437 29.0361 75.9437C26.9479 75.9437 25.5734 74.4954 25.5734 72.589ZM31.8615 71.5726C31.8615 70.4482 31.1795 69.6451 29.934 69.6451C28.3435 69.6451 27.3034 71.1697 27.3034 72.4811C27.3034 73.6054 27.9854 74.4059 29.2309 74.4059C30.824 74.4085 31.8615 72.8813 31.8615 71.5726Z" fill="#C10230"></path><path d="M36.7644 68.2386H38.4313L36.8066 74.3002H40.5852L40.1718 75.8143H34.729L36.7644 68.2386Z" fill="#C10230"></path><path d="M42.4574 73.3786C42.4574 72.9994 42.5232 72.5887 42.6417 72.1673L43.6924 68.2386H45.3592L44.2664 72.3174C44.19 72.5781 44.1479 72.8256 44.1479 73.139C44.1479 73.8868 44.614 74.395 45.4671 74.395C45.9648 74.395 46.3756 74.2318 46.6995 73.9184C47.0233 73.5945 47.2735 73.1285 47.4341 72.5123L48.5822 68.2386H50.249L49.0377 72.7519C48.777 73.7262 48.4005 74.4714 47.8686 75.0033C47.2524 75.6194 46.4177 75.9328 45.2933 75.9328C43.5396 75.9328 42.4574 74.9927 42.4574 73.3786Z" fill="#C10230"></path><path d="M53.9381 69.7764H51.634L52.0448 68.2386H58.3197L57.9089 69.7764H55.6049L53.9802 75.8143H52.316L53.9381 69.7764Z" fill="#C10230"></path><path d="M60.2919 68.2386H61.9561L59.9233 75.8143H58.2565L60.2919 68.2386Z" fill="#C10230"></path><path d="M63.1594 72.589C63.1594 70.3271 65 68.11 67.7148 68.11C69.8029 68.11 71.1774 69.5609 71.1774 71.4647C71.1774 73.7266 69.3368 75.9437 66.622 75.9437C64.5339 75.9437 63.1594 74.4954 63.1594 72.589ZM69.4448 71.5726C69.4448 70.4482 68.7628 69.6451 67.5199 69.6451C65.9295 69.6451 64.8894 71.1697 64.8894 72.4811C64.8894 73.6054 65.5713 74.4059 66.8168 74.4059C68.4073 74.4085 69.4448 72.8813 69.4448 71.5726Z" fill="#C10230"></path><path d="M74.3478 68.2386H75.8855L78.0921 73.0547L79.3903 68.2386H81.036L79.0006 75.8143H77.5839L75.2904 70.8481L73.958 75.8143H72.3149L74.3478 68.2386Z" fill="#C10230"></path><path d="M89.1436 69.7764H86.8396L87.2504 68.2386H93.5252L93.1145 69.7764H90.8104L89.1858 75.8143H87.5216L89.1436 69.7764Z" fill="#C10230"></path><path d="M93.8728 72.589C93.8728 70.3271 95.7134 68.11 98.4282 68.11C100.516 68.11 101.891 69.5609 101.891 71.4647C101.891 73.7266 100.05 75.9437 97.3354 75.9437C95.2473 75.9437 93.8728 74.4954 93.8728 72.589ZM100.161 71.5726C100.161 70.4482 99.4788 69.6451 98.236 69.6451C96.6455 69.6451 95.6054 71.1697 95.6054 72.4811C95.6054 73.6054 96.2874 74.4059 97.5329 74.4059C99.1207 74.4085 100.161 72.8813 100.161 71.5726Z" fill="#C10230"></path><path d="M103.623 72.589C103.623 70.3271 105.464 68.11 108.179 68.11C110.267 68.11 111.641 69.5609 111.641 71.4647C111.641 73.7266 109.801 75.9437 107.086 75.9437C104.998 75.9437 103.623 74.4954 103.623 72.589ZM109.909 71.5726C109.909 70.4482 109.227 69.6451 107.984 69.6451C106.394 69.6451 105.353 71.1697 105.353 72.4811C105.353 73.6054 106.035 74.4059 107.281 74.4059C108.871 74.4085 109.909 72.8813 109.909 71.5726Z" fill="#C10230"></path><path d="M114.812 68.2386H116.479L114.857 74.3002H118.633L118.222 75.8143H112.779L114.812 68.2386Z" fill="#C10230"></path><path d="M119.954 74.5271L121.21 73.4659C121.808 74.1163 122.467 74.4613 123.333 74.4613C124.004 74.4613 124.491 74.1479 124.491 73.6713C124.491 73.3027 124.22 73.0867 123.204 72.676C122.219 72.2757 121.342 71.7465 121.342 70.63C121.342 69.0817 122.73 68.1311 124.352 68.1311C125.65 68.1311 126.548 68.5735 127.188 69.2555L126.04 70.4035C125.466 69.8743 124.958 69.5925 124.223 69.5925C123.52 69.5925 123.12 69.9822 123.12 70.3614C123.12 70.7616 123.422 70.9354 124.449 71.3567C125.489 71.7781 126.266 72.2968 126.266 73.4027C126.266 74.9932 124.85 75.9227 123.259 75.9227C121.798 75.9227 120.671 75.4461 119.954 74.5271Z" fill="#C10230"></path><path d="M43.3738 34.4788L40.6748 44.9167C39.7452 48.5242 38.7525 48.9376 35.0187 48.9376L21.5237 48.9639C17.7898 48.9639 16.9841 48.4689 17.9162 44.8588L25.7473 16.0361C26.6794 12.8789 27.2087 12.081 30.9425 12.081L44.2374 12.0705C47.9713 12.0705 48.856 13.2686 47.9239 16.8813L45.2986 26.9558L59.3861 23.4564L61.5453 15.0802C64.06 4.86348 55.1283 0 48.1688 0L29.3653 0.010535C22.4031 0.010535 17.1631 1.85639 13.6215 12.1943L4.88987 46.2913C3.15461 53.0138 7.43352 61.1714 15.5516 61.1714L37.1173 61.1635C46.5546 61.1635 51.1258 55.7075 52.8611 48.9797L55.3363 39.5661L43.3738 34.4788Z" fill="#C10230"></path><path d="M179.427 23.0087L179.351 23.1245L154.433 61.2134H166.485L170.672 54.6305H183.211L184.059 61.2134H195.535L189.939 23.006H179.427V23.0087ZM176.352 46.1306L181.313 37.3753L182.258 46.128L176.352 46.1306ZM213.474 47.1628H220.173L219.091 51.0099C218.019 51.4865 216.703 51.8235 214.988 51.8235C212.977 51.8235 211.189 51.1968 209.906 50.0093C208.627 48.8217 207.81 47.0627 207.808 44.6297C207.826 38.1363 212.382 32.7514 219.028 32.7461C222.572 32.7514 225.229 34.276 227.185 36.3352L227.644 36.8197L234.966 29.323L234.645 28.8859C232.109 25.4338 226.84 22.3662 219.676 22.3635C212.856 22.3609 207.081 25.0151 203.036 29.1808C198.989 33.3439 196.656 39.0184 196.656 45.051C196.648 50.8624 198.86 55.1492 202.162 57.9141C205.464 60.6815 209.812 61.9534 214.096 61.9534C219.362 61.9534 223.96 60.334 227.486 58.1721L227.704 58.0378L232.97 38.4101H215.636L213.474 47.1628ZM92.0032 27.3534C88.9593 24.2647 84.6172 22.4109 79.5035 22.4136C73.2603 22.4136 67.886 25.1205 64.0995 29.2572C60.3103 33.3965 58.0827 38.9631 58.08 44.7324C58.08 49.5669 59.8205 53.8669 62.8698 56.9556C65.9137 60.0417 70.2558 61.8981 75.3695 61.8954H75.3747C81.618 61.8954 86.987 59.1859 90.7736 55.0492C94.5627 50.9098 96.7904 45.3459 96.7904 39.574C96.7904 34.7395 95.0472 30.4368 92.0032 27.3534ZM83.0399 47.8922C81.3757 50.0224 79.048 51.4549 76.2121 51.4575C73.8949 51.4522 72.1965 50.6597 71.03 49.351C69.8661 48.0423 69.2289 46.1648 69.2289 43.9451C69.2263 41.3619 70.1795 38.5444 71.8463 36.4168C73.5157 34.2839 75.8461 32.8515 78.6557 32.8488C80.9729 32.8541 82.6713 33.6493 83.8404 34.9554C85.0043 36.2667 85.6415 38.1442 85.6415 40.3639C85.6441 42.9497 84.6988 45.7646 83.0399 47.8922ZM118.669 23.0982H105.014L104.89 23.5801L95.3158 61.2134H106.359L109.201 50.0514H112.56L117.195 61.2134H129.268L123.783 48.5584C130.661 46.3544 134.045 41.2934 134.013 35.1028C134.016 32.0378 133.128 29.2256 131.148 27.1375C128.633 24.4859 124.589 23.0956 118.669 23.0982ZM121.074 39.5266C119.968 40.306 118.298 40.78 116.226 40.7773H111.523L113.482 33.2175H118.219C120.186 33.2122 121.458 33.6441 122.037 34.2813C122.524 34.8448 122.756 35.4399 122.761 36.3115C122.754 37.6965 122.174 38.7393 121.074 39.5266ZM167.583 33.3228L170.145 23.0982H138.276L135.659 33.3228H146.123L138.998 61.2134H150.038L157.116 33.3202H167.583V33.3228Z" fill="#C10230"></path></svg>